# xmcd
#
# Track frame offsets: 
#        150
#        9792
#        25485
#        40477
#        56387
#        66657
#        82345
#        100352
#        125707
#        144767
#        159195
#        170645
#        178102
#        185072
#
# Disc length: 2625 seconds
#
# Revision: 0
# Processed by: cddbd v1.4PL0 Copyright (c) Steve Scherf et al.
# Submitted via: ExactAudioCopy v0.90b4
#
DISCID=c60a3f0e
DTITLE=Two Scoop Combo - Clean Plate
DYEAR=1997
DGENRE=Blues
TTITLE0=Pork Chops
TTITLE1=Twelve Inches
TTITLE2=Same Old Girl
TTITLE3=Rockin' Doc Rocker
TTITLE4=Old Wine, Young Women
TTITLE5=The Place Of Love
TTITLE6=Let's Get Hammered
TTITLE7=True Blues
TTITLE8=Towards Josephine
TTITLE9=Stop Shopping Mama!!
TTITLE10=Pill Takin' Woman
TTITLE11="Washtub" Robbie
TTITLE12=I'll Be Gone
TTITLE13=Here Tomorrow, Gone Today
EXTD=www.twoscoopscombo.com\n\nEric "Two Scoops" Moore - Vocals, Piano
EXTD=, Hammond B3\n"Sax" Gordon Beadle - Tenor saxophone\nTino Barker 
EXTD=Baritone saxophone, horn arrangements\nJesse Williams - Doghous
EXTD=e, electric bass\nTom Hambridge - Drums, background vocals\nLeona
EXTD=rdo Boni (Leonard Goodies) - Guitar, banjo track12\nJimmy Gordon 
EXTD=Harmonica tracks 3, 8, 12\n"Washtub" Robbie Phillips - Washtub 
EXTD=bass track 12\nMilton Reder - 2nd guitar tracks 2, 14\nDr. Arthur
EXTD=Lauretano - Lead guitar track 4
EXTT0=
EXTT1=
EXTT2=
EXTT3=
EXTT4=
EXTT5=
EXTT6=
EXTT7=
EXTT8=
EXTT9=
EXTT10=
EXTT11=
EXTT12=
EXTT13=
PLAYORDER=
